<?xml version="1.0" encoding="UTF-8" standalone="no"?>
<!-- Created with Sodipodi ("http://www.sodipodi.com/") -->
<svg xmlns:inkscape="http://www.inkscape.org/namespaces/inkscape" xmlns:rdf="http://www.w3.org/1999/02/22-rdf-syntax-ns#" xmlns="http://www.w3.org/2000/svg" xmlns:cc="http://creativecommons.org/ns#" xmlns:dc="http://purl.org/dc/elements/1.1/" xmlns:sodipodi="http://sodipodi.sourceforge.net/DTD/sodipodi-0.dtd" xmlns:svg="http://www.w3.org/2000/svg" xmlns:ns1="http://sozi.baierouge.fr" id="svg378" inkscape:version="0.48.3.1 r9886" viewBox="0 0 1064.3 745.37" sodipodi:version="0.32-hydra1" version="1" y="0" x="0" sodipodi:docname="_svgclean2.svg" xmlns:xlink="http://www.w3.org/1999/xlink">
  <sodipodi:namedview id="base" inkscape:window-x="0" inkscape:window-y="0" inkscape:window-height="645" inkscape:window-maximized="0" inkscape:zoom="0.22425739" showgrid="false" inkscape:current-layer="svg378" inkscape:cx="372.68844" inkscape:cy="218.55332" inkscape:window-width="674"/>
  <rect id="rect149" style="fill-rule:evenodd;stroke:#000000;stroke-width:1.0247pt;fill:#ffffff" transform="scale(-1)" height="744.09" width="1063" y="-744.73" x="-1063.6"/>
  <path id="path607" sodipodi:rx="163.79161" sodipodi:ry="163.79163" style="fill-rule:evenodd;fill:#ffffff" sodipodi:type="arc" d="m495.86 1148a163.79 163.79 0 1 1 -327.58 0 163.79 163.79 0 1 1 327.58 0z" transform="translate(45.515 -775.28)" sodipodi:cy="1147.9642" sodipodi:cx="332.07068"/>
  <path id="path635" sodipodi:rx="227.73764" sodipodi:ry="227.73766" style="fill-rule:evenodd;fill:#c70000" sodipodi:type="arc" d="m733.7 381.73a227.74 227.74 0 1 1 -455.48 0 227.74 227.74 0 1 1 455.48 0z" transform="matrix(.92857 0 0 .93842 65.552 23.991)" sodipodi:cy="381.73358" sodipodi:cx="505.95901"/>
  <rect id="rect636" style="fill-rule:evenodd;stroke-width:1pt;fill:#000000" transform="rotate(-49.156)" height="38.143" width="186.23" y="198.11" x="-72.04"/>
  <rect id="rect637" style="fill-rule:evenodd;stroke-width:1pt;fill:#000000" transform="rotate(-49.156)" height="38.143" width="186.23" y="250.84" x="-72.04"/>
  <rect id="rect638" style="fill-rule:evenodd;stroke-width:1pt;fill:#000000" transform="rotate(-49.156)" height="38.143" width="186.23" y="198.11" x="-72.04"/>
  <rect id="rect639" style="fill-rule:evenodd;stroke-width:1pt;fill:#000000" transform="rotate(-49.156)" height="38.143" width="186.23" y="198.11" x="-72.04"/>
  <rect id="rect640" style="fill-rule:evenodd;stroke-width:1pt;fill:#000000" transform="rotate(-49.156)" height="38.143" width="186.23" y="304.69" x="-72.04"/>
  <rect id="rect641" style="fill-rule:evenodd;stroke-width:1pt;fill:#000000" transform="rotate(-49.156)" height="38.143" width="186.23" y="198.11" x="-72.04"/>
  <rect id="rect643" style="fill-rule:evenodd;stroke-width:1pt;fill:#000000" transform="rotate(-49.156)" height="38.143" width="186.23" y="198.11" x="-72.04"/>
  <rect id="rect644" style="fill-rule:evenodd;stroke-width:1pt;fill:#000000" transform="matrix(.64886 .76090 -.76090 .64886 0 0)" height="38.143" width="186.23" y="-613.84" x="580.16"/>
  <rect id="rect645" style="fill-rule:evenodd;stroke-width:1pt;fill:#000000" transform="matrix(.64886 .76090 -.76090 .64886 0 0)" height="38.143" width="186.23" y="-507.26" x="580.16"/>
  <path id="path649" style="fill-rule:evenodd;fill:#ffffff" inkscape:connector-curvature="0" d="m782.58 193.9 114.43-98.723 21.31 24.683-122.28 109.94-13.46-35.9z"/>
  <rect id="rect646" style="fill-rule:evenodd;stroke-width:1pt;fill:#000000" transform="matrix(-.64282 .76602 -.76881 -.63948 0 0)" height="37.333" width="182.13" y="-1055.4" x="-174.07"/>
  <rect id="rect642" style="fill-rule:evenodd;stroke-width:1pt;fill:#000000" transform="matrix(.64886 .76090 -.76090 .64886 0 0)" height="38.143" width="186.23" y="-561.11" x="580.16"/>
  <rect id="rect647" style="fill-rule:evenodd;stroke-width:1pt;fill:#000000" transform="matrix(-.64282 .76602 -.76881 -.63948 0 0)" height="37.333" width="182.13" y="-1107" x="-174.07"/>
  <rect id="rect648" style="fill-rule:evenodd;stroke-width:1pt;fill:#000000" transform="matrix(-.64282 .76602 -.76881 -.63948 0 0)" height="37.333" width="182.13" y="-1002.7" x="-174.07"/>
  <path id="path653" inkscape:connector-curvature="0" sodipodi:nodetypes="cccccccc" style="fill-rule:evenodd;fill:#3d5897" d="m326.97 344.56c6.69 53.83 16.45 113.81 99.29 120.04 31.05 1.86 91.45-7.39 112.18-91.99 27.21-81.28 109.15-104.65 164.92-60.59 31.61 20.63 40.36 53.38 42.63 77.97-2.53 78.97-47.86 147.34-106.02 177.82-66.87 39.74-159.49 40.58-240.64-19.63-36.58-34.33-87.67-97.58-72.36-203.62z"/>
  <path id="path654" style="fill-rule:evenodd;fill:#ffffff" inkscape:connector-curvature="0" d="m809.3 539.51 114.63 98.5-21.25 24.74-126.88-104.6 33.5-18.64z"/>
  <rect id="rect658" style="stroke-width:1pt;fill-rule:evenodd" transform="matrix(.64886 .76090 -.76090 .64886 0 0)" height="38.143" width="186.23" y="206.58" x="507.25"/>
  <path id="path657" style="fill-rule:evenodd;stroke-width:1pt;fill:#ffffff" inkscape:connector-curvature="0" d="m151.13 636.55 114.43-98.73 21.32 24.69-122.29 109.94-13.46-35.9z"/>
  <rect id="rect655" style="stroke-width:1pt;fill-rule:evenodd" transform="matrix(.64886 .76090 -.76090 .64886 0 0)" height="38.143" width="186.23" y="153.85" x="507.25"/>
  <rect id="rect656" style="stroke-width:1pt;fill-rule:evenodd" transform="matrix(.64886 .76090 -.76090 .64886 0 0)" height="38.143" width="186.23" y="260.42" x="507.25"/>
  <metadata id="metadata27">
    <rdf:RDF>
      <cc:Work>
        <dc:format>image/svg+xml</dc:format>
        <dc:type rdf:resource="http://purl.org/dc/dcmitype/StillImage"/>
        <cc:license rdf:resource="http://creativecommons.org/licenses/publicdomain/"/>
        <dc:publisher>
          <cc:Agent rdf:about="http://openclipart.org/">
            <dc:title>Openclipart</dc:title>
          </cc:Agent>
        </dc:publisher>
      </cc:Work>
      <cc:License rdf:about="http://creativecommons.org/licenses/publicdomain/">
        <cc:permits rdf:resource="http://creativecommons.org/ns#Reproduction"/>
        <cc:permits rdf:resource="http://creativecommons.org/ns#Distribution"/>
        <cc:permits rdf:resource="http://creativecommons.org/ns#DerivativeWorks"/>
      </cc:License>
    </rdf:RDF>
  </metadata>
</svg>
