<?xml version="1.0" encoding="utf-8"?>
<!-- Generator: Adobe Illustrator 23.0.0, SVG Export Plug-In . SVG Version: 6.00 Build 0)  -->
<svg version="1.1" id="Layer_1" xmlns="http://www.w3.org/2000/svg" xmlns:xlink="http://www.w3.org/1999/xlink" x="0px" y="0px"
	 viewBox="0 0 24 20" style="enable-background:new 0 0 24 20;" xml:space="preserve">
<style type="text/css">
	.st0{fill:#ffffff;}
</style>
<path class="st0" d="M23.6,6.7c-0.3-0.4-0.8-0.6-1.3-0.6h-4.6l-2.5-5.7C15,0,14.6-0.1,14.3,0c-0.4,0.2-0.5,0.6-0.4,0.9L16.2,6H7.8
	l2.3-5c0.2-0.4,0-0.8-0.4-0.9c-0.4-0.2-0.8,0-0.9,0.4L6.3,6.1H1.7c-0.5,0-1,0.2-1.3,0.6C0,7.1-0.1,7.6,0,8.1l2.5,10.7
	C2.7,19.5,3.3,20,4.1,20h15.7c0.8,0,1.4-0.5,1.6-1.3L24,8.1C24.1,7.6,24,7.1,23.6,6.7L23.6,6.7z M19.9,18.6H4.1
	c-0.1,0-0.2-0.1-0.2-0.2L1.4,7.8c0-0.1,0-0.1,0-0.2c0,0,0.1-0.1,0.2-0.1h4L5.5,7.9c-0.2,0.4,0,0.8,0.4,0.9c0.1,0,0.2,0.1,0.3,0.1
	c0.3,0,0.5-0.2,0.6-0.4l0.4-1h9.6l0.4,1c0.1,0.3,0.4,0.4,0.6,0.4c0.1,0,0.2,0,0.3-0.1c0.4-0.2,0.5-0.6,0.4-0.9l-0.2-0.4h4
	c0.1,0,0.2,0.1,0.2,0.1s0.1,0.1,0,0.2L20,18.5C20.1,18.5,20,18.6,19.9,18.6L19.9,18.6z"/>
<path class="st0" d="M7.8,10.5c-0.4,0-0.7,0.3-0.7,0.7v5.1c0,0.4,0.3,0.7,0.7,0.7s0.7-0.3,0.7-0.7v-5.1C8.5,10.8,8.2,10.5,7.8,10.5z
	"/>
<path class="st0" d="M12,10.5c-0.4,0-0.7,0.3-0.7,0.7v5.1c0,0.4,0.3,0.7,0.7,0.7s0.7-0.3,0.7-0.7v-5.1C12.7,10.8,12.4,10.5,12,10.5z
	"/>
<path class="st0" d="M16.2,10.5c-0.4,0-0.7,0.3-0.7,0.7v5.1c0,0.4,0.3,0.7,0.7,0.7s0.7-0.3,0.7-0.7v-5.1
	C16.9,10.8,16.6,10.5,16.2,10.5z"/>
</svg>
