<svg xmlns="http://www.w3.org/2000/svg" width="33" height="33" viewBox="0 0 33 33"><g fill="#db0000"><path data-name="Path 774" d="M16.5 19.602a2 2 0 0 0 1.993-1.989v-1h-3.986v1a2 2 0 0 0 1.993 1.989zm1-1.993a1 1 0 1 1-1.993.004z"/><path data-name="Path 775" d="M11.078 6.129l2.7-2.249A2.2 2.2 0 0 0 12.367 0h-.086a2.184 2.184 0 0 0-1.2.357A2.184 2.184 0 0 0 9.876 0h-.085A2.195 2.195 0 0 0 8.38 3.879zm-2.139-4.78A1.194 1.194 0 0 1 9.791 1h.086a1.193 1.193 0 0 1 .85.353l.352.352.352-.352a1.194 1.194 0 0 1 .85-.353h.086a1.2 1.2 0 0 1 .773 2.118l-2.062 1.714-2.061-1.718a1.195 1.195 0 0 1-.078-1.765z"/><path data-name="Path 776" d="M3.487 11.536l2.7-2.249a2.2 2.2 0 0 0-1.411-3.88H4.69a2.184 2.184 0 0 0-1.2.357 2.184 2.184 0 0 0-1.205-.357H2.2A2.195 2.195 0 0 0 .789 9.286zm-2.139-4.78a1.194 1.194 0 0 1 .852-.349h.086a1.193 1.193 0 0 1 .85.353l.352.352.352-.352a1.194 1.194 0 0 1 .85-.353h.086a1.2 1.2 0 0 1 .773 2.118l-2.062 1.714-2.061-1.718a1.195 1.195 0 0 1-.078-1.765z"/><path data-name="Path 777" d="M21.922 6.129l2.7-2.249A2.2 2.2 0 0 0 23.211 0h-.086a2.184 2.184 0 0 0-1.2.357A2.184 2.184 0 0 0 20.72 0h-.085a2.195 2.195 0 0 0-1.411 3.879zm-2.139-4.78A1.194 1.194 0 0 1 20.635 1h.086a1.193 1.193 0 0 1 .85.353l.352.352.352-.352a1.194 1.194 0 0 1 .85-.353h.086a1.2 1.2 0 0 1 .773 2.118l-2.062 1.714-2.061-1.718a1.195 1.195 0 0 1-.078-1.765z"/><path data-name="Path 778" d="M26.813 9.286l2.7 2.249 2.7-2.249a2.2 2.2 0 0 0-1.412-3.879h-.086a2.184 2.184 0 0 0-1.2.357 2.184 2.184 0 0 0-1.2-.357h-.09a2.195 2.195 0 0 0-1.411 3.879zm.56-2.53a1.194 1.194 0 0 1 .852-.349h.086a1.193 1.193 0 0 1 .85.353l.352.352.352-.352a1.194 1.194 0 0 1 .85-.353h.086a1.2 1.2 0 0 1 .773 2.118l-2.061 1.717-2.061-1.717a1.195 1.195 0 0 1-.078-1.765z"/><path data-name="Path 779" d="M31.3 14.055h-.739l-.5-.505a1.91 1.91 0 0 0-1.371-.578 1.94 1.94 0 0 0-1.839 1.348l-.169.515-7.364 6.99-.436-.888a4.629 4.629 0 0 0 1.943-2.552h.465a2.161 2.161 0 0 0 1.672-3.489l.286-1.16a5.98 5.98 0 0 0 .171-1.417 5.8 5.8 0 0 0-5.745-5.842h-2.348a5.8 5.8 0 0 0-5.745 5.843 5.956 5.956 0 0 0 .171 1.417l.285 1.159a2.172 2.172 0 0 0-.457 1.325 2.149 2.149 0 0 0 2.129 2.165h.465a4.625 4.625 0 0 0 1.943 2.552l-.436.888-7.365-6.99-.169-.515a1.94 1.94 0 0 0-1.838-1.344 1.91 1.91 0 0 0-1.371.578l-.5.505H1.7a1.734 1.734 0 0 0-.334 3.429l1.553.316 7.192 7.836v7.365h12.776v-7.37l7.192-7.836 1.553-.316a1.734 1.734 0 0 0-.334-3.429zm-16.929 9.787l.838.682a4.075 4.075 0 0 0-.838.355zm6.919-6.539h-.265l.152-2.165h.113a1.083 1.083 0 0 1 0 2.165zM10.645 16.22a1.075 1.075 0 0 1 1.065-1.083h.113l.152 2.165h-.265a1.075 1.075 0 0 1-1.065-1.082zm1.065-2.92v.128c0 .071 0 .141.008.21l.029.417h-.037a2.083 2.083 0 0 0-.747.145l-.178-.723a4.864 4.864 0 0 1-.139-1.155 4.726 4.726 0 0 1 4.681-4.76h2.348a4.726 4.726 0 0 1 4.681 4.76 4.859 4.859 0 0 1-.141 1.155l-.178.725a2.081 2.081 0 0 0-.747-.145h-.037l.021-.3a2.38 2.38 0 0 0 .548-1.524v-.337h-1.064v.337a1.277 1.277 0 0 1-1.265 1.287 1.248 1.248 0 0 1-.987-.483l-.631-.8a3.686 3.686 0 0 0-2.91-1.422H14.9a3.992 3.992 0 0 0-2.246.691 2.172 2.172 0 0 0-.944 1.794zm1.33 3.974l-.26-3.714v-.26a1.085 1.085 0 0 1 .474-.9 2.941 2.941 0 0 1 1.655-.509h.062a2.631 2.631 0 0 1 2.078 1.016l.631.8a2.3 2.3 0 0 0 2.481.792l-.2 2.778a3.466 3.466 0 0 1-6.921 0zm3.461 4.36a4.411 4.411 0 0 0 1.417-.238l.575 1.171-1.993 1.621-1.993-1.621.575-1.171a4.411 4.411 0 0 0 1.417.238zm2.129 2.209v1.034a4.074 4.074 0 0 0-.838-.355zM1.065 15.786a.644.644 0 0 1 .638-.648h1.179l.809-.822a.862.862 0 0 1 .618-.26.877.877 0 0 1 .83.608l.094.287-2.178 1.772-1.478-.3a.648.648 0 0 1-.513-.636zm20.758 9.423v6.709H11.177v-6.709l-7.2-7.848 1.853-1.508 7.478 7.1v4.32l.909-.925a3.055 3.055 0 0 1 2.193-.924h.183a3.054 3.054 0 0 1 2.193.924l.909.925v-4.32l7.478-7.1 1.853 1.508zm9.6-8.787l-1.478.3-2.178-1.772.094-.287a.875.875 0 0 1 .83-.608.863.863 0 0 1 .618.26l.809.822H31.3a.65.65 0 0 1 .125 1.284z"/></g></svg>