<svg xmlns="http://www.w3.org/2000/svg" width="45" height="45" viewBox="0 0 45 45">
  <g id="Outline" transform="translate(-16 -16)" opacity="0.5">
    <path id="Path_816" data-name="Path 816" d="M60.269,52.9l-1.493.149.557,5.573L55,55.375V31h1.571l2.034,20.349L60.1,51.2,58,30.175a.75.75,0,0,0-.746-.675H49v-6a7.5,7.5,0,0,0-10.5-6.872A7.5,7.5,0,0,0,28,23.5v6H19.75a.75.75,0,0,0-.746.675l-.5,5L20,35.325,20.429,31H24.25v7.037l-2.585,1.293A.75.75,0,0,0,21.25,40v3h1.5V40.463l1.5-.75V41.5h1.5V39.713l1.5.75V48.25h-4.5V44.5h-1.5V49a.75.75,0,0,0,.75.75h6a.75.75,0,0,0,.75-.75V40a.75.75,0,0,0-.415-.671L25.75,38.036V31H28v1.7a1.5,1.5,0,1,0,1.5,0V31h12v1.7a1.5,1.5,0,1,0,1.5,0V31h7.421l-2.85,28.5H17.579L19.81,37.191l-1.493-.149L16,60.175A.75.75,0,0,0,16.75,61h43.5A.75.75,0,0,0,61,60.175ZM34,29.5H29.5v-6a6,6,0,0,1,7.318-5.852A7.488,7.488,0,0,0,34,23.5Zm7.5,0h-6v-6a6,6,0,0,1,3-5.193,6,6,0,0,1,3,5.193Zm6,0H43v-6a7.488,7.488,0,0,0-2.817-5.852A6,6,0,0,1,47.5,23.5ZM51.929,31H53.5V55.375l-4.334,3.25ZM50.5,59.5l3.75-2.812L58,59.5Z" transform="translate(0 0)" fill="#db0000"/>
  </g>
</svg>
