<?xml version="1.0" encoding="UTF-8"?>
<svg xmlns="http://www.w3.org/2000/svg" xmlns:xlink="http://www.w3.org/1999/xlink" width="45px" height="45px" viewBox="0 0 45 45" version="1.1">
<g id="surface1">
<path style=" stroke:none;fill-rule:nonzero;fill:rgb(100%,84.313725%,43.137255%);fill-opacity:1;" d="M 24.828125 6.5625 L 32.113281 3.527344 C 32.507812 3.363281 32.964844 3.550781 33.128906 3.945312 C 33.292969 4.339844 33.105469 4.792969 32.710938 4.960938 L 24.828125 8.242188 L 24.828125 9.285156 L 35.207031 7.335938 C 36.222656 7.148438 36.769531 6.039062 36.308594 5.117188 L 34.179688 0.859375 C 33.746094 -0.0078125 32.636719 -0.269531 31.859375 0.3125 L 24.664062 5.707031 C 24.769531 5.839844 24.828125 6.003906 24.828125 6.183594 Z M 24.828125 6.5625 "/>
<path style=" stroke:none;fill-rule:nonzero;fill:rgb(100%,54.901961%,52.941176%);fill-opacity:1;" d="M 15.511719 30.429688 C 15.511719 28.183594 17.332031 26.367188 19.574219 26.367188 C 20.054688 26.367188 20.519531 26.453125 20.945312 26.605469 L 20.945312 19.378906 L 3.089844 19.378906 L 3.089844 43.449219 C 3.089844 44.304688 3.785156 45 4.644531 45 L 20.945312 45 L 20.945312 37.960938 C 18.140625 36.15625 15.511719 33.066406 15.511719 30.429688 Z M 15.511719 30.429688 "/>
<path style=" stroke:none;fill-rule:nonzero;fill:rgb(100%,54.901961%,52.941176%);fill-opacity:1;" d="M 24.050781 26.566406 C 24.449219 26.4375 24.867188 26.367188 25.308594 26.367188 C 27.550781 26.367188 29.367188 28.183594 29.367188 30.429688 C 29.367188 33.027344 26.8125 36.070312 24.050781 37.882812 L 24.050781 45 L 40.355469 45 C 41.214844 45 41.910156 44.304688 41.910156 43.449219 L 41.910156 19.378906 L 24.050781 19.378906 Z M 24.050781 26.566406 "/>
<path style=" stroke:none;fill-rule:nonzero;fill:rgb(82.352941%,33.333333%,36.470588%);fill-opacity:1;" d="M 24.050781 17.828125 L 41.910156 17.828125 L 41.910156 19.378906 L 24.050781 19.378906 Z M 24.050781 17.828125 "/>
<path style=" stroke:none;fill-rule:nonzero;fill:rgb(82.352941%,33.333333%,36.470588%);fill-opacity:1;" d="M 3.089844 17.828125 L 20.945312 17.828125 L 20.945312 19.378906 L 3.089844 19.378906 Z M 3.089844 17.828125 "/>
<path style=" stroke:none;fill-rule:nonzero;fill:rgb(90.980392%,39.215686%,39.215686%);fill-opacity:1;" d="M 41.910156 9.289062 L 24.050781 9.289062 L 24.050781 17.828125 L 43.460938 17.828125 L 43.460938 10.839844 C 43.460938 9.984375 42.765625 9.289062 41.910156 9.289062 Z M 41.910156 9.289062 "/>
<path style=" stroke:none;fill-rule:nonzero;fill:rgb(90.980392%,39.215686%,39.215686%);fill-opacity:1;" d="M 20.945312 9.289062 L 3.089844 9.289062 C 2.234375 9.289062 1.539062 9.984375 1.539062 10.839844 L 1.539062 17.828125 L 20.945312 17.828125 Z M 20.945312 9.289062 "/>
<path style=" stroke:none;fill-rule:nonzero;fill:rgb(100%,84.313725%,43.137255%);fill-opacity:1;" d="M 12.289062 4.960938 C 11.894531 4.792969 11.707031 4.339844 11.871094 3.945312 C 12.035156 3.550781 12.492188 3.359375 12.886719 3.527344 L 20.171875 6.5625 L 20.171875 6.183594 C 20.171875 6.003906 20.230469 5.839844 20.335938 5.707031 L 13.140625 0.3125 C 12.363281 -0.269531 11.253906 -0.0078125 10.820312 0.859375 L 8.691406 5.117188 C 8.230469 6.039062 8.777344 7.148438 9.792969 7.335938 L 20.171875 9.285156 L 20.171875 8.242188 Z M 12.289062 4.960938 "/>
<path style=" stroke:none;fill-rule:nonzero;fill:rgb(100%,72.54902%,43.137255%);fill-opacity:1;" d="M 20.945312 9.289062 L 24.828125 9.289062 L 24.828125 8.242188 L 32.710938 4.960938 C 33.105469 4.792969 33.292969 4.339844 33.128906 3.945312 C 32.964844 3.550781 32.507812 3.363281 32.113281 3.527344 L 24.828125 6.5625 L 24.828125 6.183594 C 24.828125 6.003906 24.769531 5.839844 24.664062 5.707031 C 24.523438 5.523438 24.300781 5.40625 24.050781 5.40625 L 20.945312 5.40625 C 20.699219 5.40625 20.476562 5.523438 20.335938 5.707031 C 20.230469 5.839844 20.171875 6.003906 20.171875 6.183594 L 20.171875 6.5625 L 12.886719 3.527344 C 12.492188 3.359375 12.035156 3.550781 11.871094 3.945312 C 11.707031 4.339844 11.894531 4.792969 12.289062 4.960938 L 20.171875 8.242188 L 20.171875 9.289062 Z M 20.945312 9.289062 "/>
<path style=" stroke:none;fill-rule:nonzero;fill:rgb(100%,84.313725%,43.137255%);fill-opacity:1;" d="M 20.945312 9.289062 L 24.050781 9.289062 L 24.050781 17.828125 L 20.945312 17.828125 Z M 20.945312 9.289062 "/>
<path style=" stroke:none;fill-rule:nonzero;fill:rgb(100%,84.313725%,43.137255%);fill-opacity:1;" d="M 20.945312 26.605469 C 21.515625 26.808594 22.023438 27.136719 22.441406 27.550781 C 22.886719 27.105469 23.4375 26.765625 24.050781 26.566406 L 24.050781 19.378906 L 20.945312 19.378906 Z M 20.945312 26.605469 "/>
<path style=" stroke:none;fill-rule:nonzero;fill:rgb(100%,84.313725%,43.137255%);fill-opacity:1;" d="M 22.441406 38.789062 C 21.945312 38.558594 21.445312 38.28125 20.945312 37.960938 L 20.945312 45 L 24.050781 45 L 24.050781 37.882812 C 23.515625 38.234375 22.972656 38.542969 22.441406 38.789062 Z M 22.441406 38.789062 "/>
<path style=" stroke:none;fill-rule:nonzero;fill:rgb(100%,72.54902%,43.137255%);fill-opacity:1;" d="M 20.945312 17.828125 L 24.050781 17.828125 L 24.050781 19.378906 L 20.945312 19.378906 Z M 20.945312 17.828125 "/>
<path style=" stroke:none;fill-rule:nonzero;fill:rgb(82.352941%,31.372549%,33.333333%);fill-opacity:1;" d="M 20.945312 26.605469 C 20.519531 26.453125 20.054688 26.367188 19.574219 26.367188 C 17.332031 26.367188 15.511719 28.183594 15.511719 30.429688 C 15.511719 33.066406 18.140625 36.15625 20.945312 37.960938 C 21.445312 38.28125 21.945312 38.558594 22.441406 38.789062 C 22.972656 38.542969 23.515625 38.234375 24.050781 37.882812 C 26.8125 36.070312 29.367188 33.027344 29.367188 30.429688 C 29.367188 28.183594 27.550781 26.367188 25.308594 26.367188 C 24.867188 26.367188 24.449219 26.4375 24.050781 26.566406 C 23.4375 26.765625 22.886719 27.105469 22.441406 27.550781 C 22.023438 27.136719 21.515625 26.808594 20.945312 26.605469 Z M 20.945312 26.605469 "/>
</g>
</svg>
