<svg xmlns="http://www.w3.org/2000/svg" width="33" height="33" viewBox="0 0 33 33"><path data-name="Path 780" d="M10.066 23.802a.674.674 0 1 0 .674.674.674.674 0 0 0-.674-.674z" fill="#db0000"/><path data-name="Path 781" d="M29.013 12.246l3.8-3.8a.645.645 0 0 0-.266-1.072L23.3 4.522a6.446 6.446 0 0 0-12.131-.485L.452 7.377a.645.645 0 0 0-.264 1.071l3.9 3.9-2.458 4.1a.645.645 0 0 0 .349.943l3.566 1.189v9.908a.645.645 0 0 0 .418.6l10.325 3.871a.642.642 0 0 0 .412.006h.006L28.3 29.098a.645.645 0 0 0 .441-.611V18.31l3.8-1.195a.645.645 0 0 0 .263-1.071zm-5.423-5.8c0-.164-.007-.327-.019-.49l7.573 2.337-3.216 3.216-5.256-1.752a6.464 6.464 0 0 0 .917-3.312zM12.267 4.768A5.156 5.156 0 0 1 22.3 6.445a5.156 5.156 0 0 1-5.156 5.153 5.16 5.16 0 0 1-4.877-6.83zM1.853 8.29l8.914-2.779a6.5 6.5 0 0 0-.069.935 6.406 6.406 0 0 0 .714 2.95l-6.34 2.113zm1.294 8.128l2.038-3.4 10.349 3.45-2.038 3.4zm12.708 15.007l-9.023-3.383v-9.037c7.1 2.354 6.753 2.282 6.95 2.282a.645.645 0 0 0 .553-.313l1.52-2.534zm.645-15.991l-9.564-3.188 5.207-1.736a6.444 6.444 0 0 0 9.711.333l4.208 1.4zm10.957 12.59l-10.313 3.437V17.95l2.285 2.856a.645.645 0 0 0 .7.212l7.331-2.3zm-7.3-8.367l-2.58-3.224 10.347-3.449 3.22 3.22z" fill="#db0000"/><path data-name="Path 782" d="M14.204 25.239l-1.5-.562a.674.674 0 0 0-.473 1.262l1.5.562a.674.674 0 0 0 .473-1.262z" fill="#db0000"/><path data-name="Path 783" d="M14.284 27.806l-4.043-1.516a.674.674 0 1 0-.473 1.262l4.043 1.516a.674.674 0 1 0 .473-1.262z" fill="#db0000"/><path data-name="Path 784" d="M20.946 4.242a.674.674 0 0 0-.953 0l-3.567 3.567-.871-.871a.674.674 0 0 0-.953.953l1.348 1.348a.674.674 0 0 0 .953 0l4.043-4.043a.674.674 0 0 0 0-.954z" fill="#db0000"/></svg>