<svg xmlns="http://www.w3.org/2000/svg" width="28" height="28" viewBox="0 0 28 28"><g fill="#db0000"><path data-name="Path 808" d="M11.667 28a3.269 3.269 0 0 0 3.229-2.8h4.977l-.6.6.66.66 1.4-1.4a.466.466 0 0 0 0-.66l-1.4-1.4-.66.66.6.6H14.9a3.265 3.265 0 1 0-3.229 3.733zm0-5.6a2.333 2.333 0 1 1-2.333 2.333 2.336 2.336 0 0 1 2.333-2.333z"/><path data-name="Path 809" d="M24.734 28a3.267 3.267 0 1 0-3.267-3.266A3.27 3.27 0 0 0 24.734 28zm0-5.6a2.333 2.333 0 1 1-2.333 2.333 2.336 2.336 0 0 1 2.333-2.333z"/><path data-name="Path 810" d="M9.8 10.733a3.269 3.269 0 0 0-3.229 2.8h-.738a5.833 5.833 0 0 0 0 11.667h.973l-.6.6.66.66 1.4-1.4a.466.466 0 0 0 0-.66l-1.4-1.4-.66.66.6.6h-.973a4.9 4.9 0 0 1 0-9.8h.737a3.265 3.265 0 1 0 3.23-3.727zm0 5.6A2.333 2.333 0 1 1 12.133 14 2.336 2.336 0 0 1 9.8 16.333z"/><path data-name="Path 811" d="M11.53 1.537l-.66.66.6.6H6.5a3.267 3.267 0 1 0 0 .933h4.977l-.6.6.66.66 1.4-1.4a.466.466 0 0 0 0-.66zM3.267 5.6A2.333 2.333 0 1 1 5.6 3.267 2.336 2.336 0 0 1 3.267 5.6z"/><path data-name="Path 812" d="M28 8.633A5.84 5.84 0 0 0 22.167 2.8h-2.6a3.267 3.267 0 1 0 0 .933h2.6a4.9 4.9 0 0 1 0 9.8H14.66l.6-.6-.66-.66-1.4 1.4a.466.466 0 0 0 0 .66l1.4 1.4.66-.66-.6-.6h7.507A5.84 5.84 0 0 0 28 8.633zM16.334 5.6a2.333 2.333 0 1 1 2.333-2.333A2.336 2.336 0 0 1 16.334 5.6z"/></g></svg>