<svg xmlns="http://www.w3.org/2000/svg" width="33" height="28.6" viewBox="0 0 33 28.6"><g data-name="Line stroke cut Ex" fill="#db0000"><g data-name="Group 484"><path data-name="Path 790" d="M33 7.995V4.236a1.247 1.247 0 0 0-1.238-1.253H12.237A1.247 1.247 0 0 0 11 4.236v.975H9.718a1.231 1.231 0 0 0-1.03.558l-1.841 2.8a2.615 2.615 0 0 0-1.86 1.077l-1.032 1.437.89.655 1.032-1.437A1.511 1.511 0 0 1 7.1 9.67H11v5.012H2.73l1.565-2.178-.89-.655-2.113 2.934A1.951 1.951 0 0 0 0 16.627v6.822a1.247 1.247 0 0 0 1.238 1.253H2.2a3.85 3.85 0 1 0 7.7 0h13.2a3.85 3.85 0 1 0 7.7 0h.962A1.247 1.247 0 0 0 33 23.449V9.109h-1.1v9.467H12.1V4.236a.138.138 0 0 1 .137-.139h19.525a.138.138 0 0 1 .137.139v3.759zm-24.822.557L9.6 6.383a.137.137 0 0 1 .114-.062H11v2.228zM1.1 16.627a.831.831 0 0 1 .825-.835h.825v2.506a.831.831 0 0 1-.825.835H1.1zm4.95 10.856a2.785 2.785 0 1 1 2.75-2.784 2.767 2.767 0 0 1-2.75 2.784zm3.69-3.9a3.837 3.837 0 0 0-7.38 0H1.237a.138.138 0 0 1-.137-.139v-3.2h.825a1.939 1.939 0 0 0 1.925-1.949v-2.506H11v7.8zm17.21 3.9a2.785 2.785 0 1 1 2.75-2.784 2.767 2.767 0 0 1-2.75 2.784zm4.95-7.8v3.759a.138.138 0 0 1-.137.139H30.64a3.837 3.837 0 0 0-7.38 0H12.1v-3.9z"/><path data-name="Path 791" d="M7.753 17.115h1.989v.994H7.753z"/><path data-name="Path 792" d="M22.474 5.926a.5.5 0 0 0-.4 0l-4.469 1.993a.5.5 0 0 0-.289.531l.373 2.365v.012a8.138 8.138 0 0 0 3.211 5.1l1.084.8a.5.5 0 0 0 .587 0l1.033-.751a8.135 8.135 0 0 0 3.252-5.134v-.012l.376-2.384a.5.5 0 0 0-.289-.532zm3.4 4.748a7.146 7.146 0 0 1-2.858 4.5l-.738.537-.791-.583a7.147 7.147 0 0 1-2.821-4.475l-.312-1.983 3.918-1.747L26.19 8.67z"/><path data-name="Path 793" d="M20.506 10.603l-.7.7 1.492 1.492a.5.5 0 0 0 .7 0l2.983-2.983-.7-.7-2.632 2.632z"/><path data-name="Path 794" d="M13.244 5.521h.994v.994h-.994z"/><path data-name="Path 795" d="M13.244 16.563h.994v.994h-.994z"/><path data-name="Path 796" d="M30.017 5.521h.994v.994h-.994z"/><path data-name="Path 797" d="M30.017 16.563h.994v.994h-.994z"/><path data-name="Path 798" d="M5.47 23.628a1.492 1.492 0 1 0 1.492 1.492 1.492 1.492 0 0 0-1.492-1.492zm0 1.989a.5.5 0 1 1 .5-.5.5.5 0 0 1-.5.5z"/><path data-name="Path 799" d="M27.531 23.628a1.492 1.492 0 1 0 1.492 1.492 1.492 1.492 0 0 0-1.492-1.492zm0 1.989a.5.5 0 1 1 .5-.5.5.5 0 0 1-.5.5z"/><path data-name="Path 800" d="M0 5.521h3.978v.994H0z"/><path data-name="Path 801" d="M5.518 5.521h.994v.994h-.994z"/><path data-name="Path 802" d="M5.123 0h7.955v.994H5.123z"/><path data-name="Path 803" d="M14.899 0h.994v.994h-.994z"/><path data-name="Path 804" d="M21.067.994h7.955v.994h-7.955z"/><path data-name="Path 805" d="M30.017.994h.994v.994h-.994z"/></g><g data-name="Group 485"><path data-name="Path 806" d="M11.031 26.611h8.95v.994h-8.95z"/><path data-name="Path 807" d="M20.975 26.611h.994v.994h-.994z"/></g></g></svg>